# Blender 3.5.1
# www.blender.org
mtllib test-lower.mtl
o lower_40k
v -16.969667 -29.236885 -44.070854
v -18.615194 -33.268555 -38.792679
v -19.627634 -22.307371 -40.219612
v -15.934587 -29.495850 -39.715088
v -18.433697 -24.570433 -36.691349
v -17.542828 -29.535654 -37.103191
v -18.256037 -27.536058 -38.350353
v -21.357515 -33.828812 -37.374752
v -20.228100 -29.990532 -38.788700
v -24.380644 -29.176573 -36.546219
v -25.622332 -33.047169 -39.113583
v -23.239113 -23.533796 -37.679180
v -21.397009 -27.698030 -38.433418
v -26.085766 -33.569752 -43.804508
v -24.544371 -25.655142 -35.600254
v -27.644468 -29.159906 -41.366138
v -26.999048 -25.500078 -39.231483
v -13.727312 -39.604431 -44.642792
v -16.163504 -44.072865 -40.222984
v -14.147709 -42.259480 -38.731548
v -16.539024 -32.950665 -42.905762
v -15.985894 -34.745148 -38.379990
v -15.178577 -37.925499 -39.254684
v -18.912945 -38.894108 -39.914421
v -18.267546 -44.859943 -38.957001
v -19.013571 -34.633465 -38.786289
v -17.428679 -38.314919 -40.090366
v -22.403837 -44.816738 -44.287586
v -20.942490 -40.610821 -38.397285
v -24.235317 -41.715160 -42.597591
v -21.756739 -35.059738 -38.148842
v -23.652367 -38.469723 -39.079842
v -25.456730 -37.539841 -44.321846
v -13.742233 -44.869164 -45.006035
v -14.345441 -51.519272 -40.548901
v -12.492884 -47.096550 -39.593410
v -16.206448 -44.385761 -40.149353
v -14.749233 -48.264450 -40.079853
v -16.511484 -51.624725 -39.064678
v -20.937685 -49.491810 -42.815601
v -18.334414 -45.801918 -38.831074
v -21.467388 -47.379471 -46.131451
v -11.244240 -56.316010 -42.629574
v -11.281587 -52.072353 -46.154560
v -11.589721 -53.342857 -40.389992
v -13.079160 -54.548523 -40.836369
v -13.561124 -58.043945 -40.245914
v -14.312591 -51.028400 -41.605774
v -16.508394 -56.380142 -39.670750
v -16.405958 -52.608757 -40.290268
v -18.794804 -56.093048 -46.892635
v -17.398073 -51.117504 -40.840694
v -6.526634 -57.347034 -46.972008
v -6.971544 -62.381001 -43.553841
v -11.241135 -58.894863 -38.518955
v -10.078439 -57.170834 -43.261127
v -8.331819 -62.997437 -38.829643
v -9.495481 -63.842884 -38.738602
v -13.444793 -58.637630 -40.647812
v -13.184349 -61.450302 -39.473034
v -10.784794 -64.157455 -45.585014
v -14.923086 -60.869431 -48.374737
v -4.275417 -60.540527 -46.280926
v -3.156426 -65.907211 -42.334820
v -7.365201 -63.745735 -42.546707
v -3.746976 -67.447701 -38.395203
v -8.398232 -65.016655 -38.790577
v -7.445203 -67.421043 -47.211140
v -9.868382 -65.092209 -39.405304
v -9.649396 -65.042244 -42.947205
v 2.590551 -67.176033 -42.213478
v -2.555880 -66.627831 -42.063438
v -3.885196 -67.927574 -38.524719
v 1.800351 -68.844978 -38.577888
v 0.409583 -68.430214 -44.926594
v -3.431185 -68.292328 -45.999958
v 3.898505 -66.219116 -43.595970
v 5.969728 -68.057465 -41.875702
v 2.366755 -68.650467 -38.302006
v 4.430432 -69.434448 -47.938477
v 7.654002 -69.572357 -39.537273
v 6.692974 -70.732124 -39.648659
v 1.471489 -69.073082 -44.850681
v 11.428503 -63.744434 -43.257835
v 8.021868 -61.188484 -46.130287
v 6.590730 -66.721245 -41.693344
v 10.809708 -67.646217 -47.185150
v 8.131973 -68.847984 -43.393394
v 11.920901 -66.216522 -38.101391
v 6.353551 -68.590698 -38.386742
v 15.031669 -59.259426 -41.500027
v 11.379126 -58.869629 -46.298206
v 18.723457 -63.635239 -47.725361
v 16.558308 -60.214073 -38.881527
v 15.151445 -66.098839 -47.273376
v 13.948421 -65.622116 -38.232784
v 11.627735 -65.674019 -41.029320
v 13.476830 -63.013519 -38.468372
v 15.704309 -53.221542 -44.794064
v 17.962904 -52.857800 -41.152561
v 22.835188 -58.341381 -47.549358
v 20.762999 -54.000160 -39.222340
v 21.226574 -59.397621 -42.845070
v 15.244473 -57.064869 -42.529507
v 15.503806 -54.607105 -39.909790
v 19.366745 -57.556011 -37.700722
v 16.879038 -56.072350 -39.617126
v 16.207523 -59.747471 -39.885201
v 23.489527 -46.296810 -39.175438
v 26.438332 -51.420631 -45.438618
v 20.785463 -46.186558 -39.238750
v 24.695772 -48.890488 -38.056801
v 17.838579 -48.645393 -38.108124
v 18.311758 -51.433521 -39.988544
v 23.481001 -54.098408 -44.308083
v 22.607763 -52.101040 -37.152550
v 20.180281 -50.308456 -38.874134
v 20.165003 -53.580341 -38.619572
v 30.508236 -39.073303 -41.466473
v 26.080257 -36.232582 -37.084312
v 22.475496 -34.447701 -41.028503
v 28.512363 -46.000870 -42.615871
v 18.878841 -42.436813 -43.598984
v 23.885496 -38.494682 -38.277935
v 20.531309 -36.036858 -38.224579
v 25.605011 -41.893608 -36.881580
v 21.889706 -37.869949 -37.357700
v 19.165628 -39.878593 -39.031425
v 24.315157 -45.569386 -37.142342
v 23.628874 -40.910088 -38.377155
v 22.602074 -46.631363 -38.924789
v 18.854670 -43.456455 -37.810814
v 21.070787 -39.870281 -39.013966
v 22.251846 -42.834332 -38.716526
v 20.469557 -44.762180 -39.126816
v 31.205637 -25.666071 -37.239201
v 29.775959 -28.374516 -33.510391
v 26.087988 -24.580044 -36.887947
v 33.001770 -34.122761 -41.878178
v 25.927225 -27.135054 -36.030727
v 27.437346 -30.455589 -36.063015
v 23.323851 -27.366323 -37.882942
v 29.276251 -31.574091 -35.147781
v 30.503950 -35.209751 -37.663891
v 25.673277 -30.577259 -37.163403
v 22.693691 -30.329239 -43.060066
v 21.340998 -30.310045 -38.244980
v 25.304512 -32.639252 -36.891174
v 25.871058 -35.529453 -36.074070
v 21.668070 -32.348557 -36.545574
v 23.504997 -34.443840 -38.083607
vn 0.7695 -0.6001 -0.2185
vn 0.8796 0.4391 -0.1829
vn 0.8897 0.4565 -0.0083
vn 0.7705 -0.4331 0.4678
vn 0.1060 -0.4806 0.8705
vn 0.7156 0.5352 0.4488
vn 0.4165 0.2038 0.8860
vn 0.4938 0.1689 0.8530
vn -0.4865 -0.2404 0.8400
vn 0.4894 0.1156 0.8643
vn -0.5433 0.2962 0.7856
vn 0.0767 0.8508 0.5198
vn -0.4078 -0.4103 0.8157
vn -0.0177 -0.1620 0.9866
vn -0.2298 -0.9645 0.1302
vn 0.0021 -0.4881 0.8728
vn -0.8236 -0.1055 0.5573
vn -0.2507 -0.2788 0.9270
vn 0.7242 0.2009 0.6597
vn -0.9088 -0.3952 0.1338
vn -0.5492 0.7324 0.4025
vn 0.5889 -0.1840 0.7869
vn -0.8151 -0.1778 0.5513
vn -0.8179 -0.1844 0.5450
vn 0.7397 -0.6320 -0.2313
vn 0.9240 0.3805 0.0380
vn 0.9614 0.1890 0.2000
vn 0.9520 0.2481 0.1791
vn -0.4059 -0.2676 0.8739
vn 0.4535 0.1888 0.8710
vn -0.1917 0.0725 0.9788
vn 0.4801 0.1894 0.8565
vn -0.2807 -0.3201 0.9049
vn -0.2950 0.8735 0.3872
vn -0.0154 0.9288 0.3702
vn -0.1367 -0.3825 0.9138
vn -0.6270 -0.4760 0.6167
vn -0.6193 -0.6248 0.4755
vn 0.2081 -0.2458 0.9467
vn 0.2551 -0.2419 0.9362
vn -0.8860 -0.3730 -0.2756
vn -0.5832 -0.5466 0.6009
vn 0.5721 0.0473 0.8188
vn -0.3078 -0.0876 0.9474
vn -0.9425 -0.1529 0.2973
vn -0.8536 0.3761 0.3605
vn 0.8937 -0.3029 -0.3309
vn 0.5574 0.8051 0.2027
vn -0.1297 -0.1572 0.9790
vn 0.5662 -0.0483 0.8229
vn -0.1848 -0.0518 0.9814
vn 0.3770 0.0810 0.9227
vn 0.4302 0.1775 0.8851
vn -0.6927 -0.2441 0.6786
vn -0.9017 0.2847 0.3254
vn 0.9956 0.0648 0.0675
vn 0.5792 0.7890 0.2049
vn 0.2241 -0.5696 0.7908
vn 0.7092 0.0213 0.7047
vn 0.2582 0.1262 0.9578
vn -0.3469 0.0827 0.9343
vn 0.2451 0.1507 0.9577
vn 0.3272 0.3098 0.8928
vn -0.4713 -0.8745 0.1145
vn -0.9502 -0.0946 0.2971
vn -0.2799 0.1630 0.9461
vn 0.8186 0.2714 0.5062
vn 0.4581 0.7934 0.4008
vn 0.7893 0.5372 0.2974
vn 0.5899 -0.8049 0.0648
vn -0.1778 0.9380 0.2974
vn -0.0668 0.1973 0.9781
vn -0.1941 -0.2102 0.9582
vn -0.6607 0.2364 0.7125
vn -0.5584 -0.8172 0.1427
vn -0.9815 -0.0111 0.1910
vn -0.6519 -0.7542 0.0781
vn 0.2737 0.6062 0.7468
vn 0.4062 0.8287 0.3849
vn 0.4001 0.8291 0.3906
vn -0.3184 -0.4758 0.8199
vn -0.3770 -0.9131 0.1554
vn -0.7812 -0.6216 -0.0571
vn 0.1089 0.9192 0.3785
vn 0.1471 0.8864 0.4389
vn -0.0188 -0.9980 -0.0611
vn -0.1588 -0.9866 0.0385
vn 0.0486 0.9978 -0.0457
vn 0.6574 -0.7287 -0.1916
vn 0.3332 0.8165 0.4714
vn 0.2467 0.8847 0.3955
vn -0.2160 -0.9719 -0.0932
vn 0.1807 -0.2413 0.9535
vn -0.4019 -0.9086 0.1136
vn -0.1520 0.6420 0.7515
vn 0.4954 -0.8654 0.0756
vn -0.3680 0.8243 0.4303
vn 0.3779 -0.9080 0.1809
vn -0.3718 0.8193 0.4365
vn 0.5739 -0.8102 0.1191
vn -0.5230 0.6560 0.5441
vn 0.8582 -0.3717 0.3539
vn -0.5836 0.6426 0.4965
vn -0.8904 0.2579 0.3750
vn -0.0354 -0.9982 0.0479
vn 0.0444 0.0978 0.9942
vn -0.7663 -0.0810 0.6374
vn 0.9474 -0.1182 0.2974
vn -0.4895 0.8440 0.2193
vn -0.9935 0.1139 -0.0085
vn 0.9009 -0.1859 0.3922
vn -0.0760 -0.9670 -0.2431
vn -0.6624 -0.5125 0.5464
vn 0.1980 0.3673 0.9088
vn -0.3460 0.4968 0.7959
vn -0.3381 0.4793 0.8099
vn 0.3055 -0.8561 0.4169
vn -0.8829 0.1284 0.4518
vn -0.5909 0.0492 0.8052
vn 0.8950 0.4420 0.0598
vn -0.0055 0.3939 0.9191
vn 0.7009 -0.6602 0.2698
vn 0.8280 -0.4409 0.3466
vn 0.3328 0.0345 0.9424
vn -0.2123 0.1170 0.9702
vn 0.3614 -0.8857 0.2913
vn -0.2897 0.4293 0.8554
vn -0.1398 -0.5699 0.8098
vn -0.5408 0.0678 0.8384
vn -0.5435 0.0676 0.8367
vn -0.8271 0.4710 -0.3066
vn 0.7384 -0.3119 0.5978
vn -0.3208 0.7178 0.6180
vn -0.5350 0.0751 0.8415
vn 0.6925 -0.0323 0.7207
vn 0.1788 -0.5893 0.7879
vn 0.7444 -0.3034 0.5948
vn 0.4285 0.6258 0.6518
vn -0.9228 0.3580 -0.1426
vn -0.5937 0.0300 0.8042
vn -0.5286 0.0097 0.8488
vn -0.9958 0.0906 0.0118
vn 0.2749 -0.9188 0.2832
vn 0.1318 -0.6636 0.7363
vn -0.0043 -0.6367 0.7711
vn -0.5153 0.2229 0.8275
vn -0.5015 0.1152 0.8574
vn -0.2467 -0.0136 0.9690
vn -0.6634 -0.7365 -0.1325
vn 0.6551 0.7535 0.0563
vn -0.0101 0.3237 0.9461
vn -0.2411 0.0013 0.9705
vn -0.4168 0.1964 0.8875
vn -0.4808 -0.4684 0.7412
vn 0.3064 -0.4606 0.8330
vn 0.2215 0.1844 0.9576
vn 0.2028 0.7537 0.6252
vn 0.9334 0.0014 0.3589
vn 0.7304 -0.3981 0.5550
vn 0.5390 0.2373 0.8082
vn -0.7092 -0.0643 0.7021
vn -0.5714 0.2931 0.7665
vn -0.5024 -0.2366 0.8316
vn 0.8650 -0.0532 0.4990
vn -0.5661 -0.3037 0.7663
vn -0.5518 -0.2237 0.8035
vn -0.6046 0.7208 -0.3389
vn -0.7949 0.5632 -0.2256
vn -0.2396 0.0421 0.9700
vn 0.3158 -0.4655 0.8268
vn -0.4861 0.1482 0.8612
vn -0.3847 0.1168 0.9156
vn -0.5283 0.2033 0.8244
vn -0.1544 0.6179 0.7709
vn 0.1029 0.1121 0.9884
vn -0.0236 -0.9646 -0.2628
vn 0.0320 -0.5730 0.8189
vn -0.6172 0.0997 0.7805
vn -0.8565 -0.4577 -0.2388
vn -0.8160 -0.4417 -0.3728
vn -0.4097 0.9002 -0.1479
vn -0.2425 0.4305 -0.8694
vn 0.3845 -0.8104 -0.4420
vn -0.0063 0.1187 -0.9929
vn 0.3222 -0.7252 -0.6086
vn -0.2998 0.8459 -0.4412
vn -0.2998 0.8459 -0.4411
vn -0.3690 0.9195 -0.1356
vn -0.3691 0.9195 -0.1356
vn 0.1414 -0.7134 -0.6864
vn -0.3956 0.8376 0.3767
vn 0.4401 -0.8970 -0.0417
vn -0.4923 0.8568 -0.1533
vn 0.2331 0.0596 -0.9706
vn 0.2331 0.0597 -0.9706
vn -0.6249 -0.5179 0.5842
vn -0.3662 0.9247 0.1045
vn -0.3662 0.9246 0.1045
vn -0.7216 0.5498 -0.4208
vn 0.7229 -0.4951 -0.4821
vn 0.7228 -0.4951 -0.4821
vn -0.7950 0.6017 -0.0776
vn 0.1134 0.8896 -0.4425
vn -0.7741 0.6297 0.0652
vn -0.4975 0.6669 -0.5547
vn 0.9056 0.2235 -0.3605
vn -0.8700 -0.3999 -0.2885
vn 0.9925 -0.0418 -0.1148
vn -0.8357 -0.1954 -0.5132
vn -0.7711 0.5083 -0.3835
vn 0.4812 -0.2888 -0.8277
vn -0.7478 -0.4083 0.5235
vn 0.7596 0.2285 0.6089
vn 0.6672 0.7350 -0.1210
vn 0.4785 0.8263 -0.2971
vn -0.6321 -0.2301 -0.7399
vn -0.6321 -0.2300 -0.7399
vn 0.4846 0.8115 -0.3266
vn -0.4726 -0.6989 -0.5369
vn -0.5547 -0.3721 -0.7442
vn -0.1844 -0.8267 -0.5315
vn 0.3013 -0.8669 -0.3971
vn -0.3936 0.9189 -0.0243
vn 0.2240 0.5741 -0.7875
vn 0.4956 0.8664 -0.0609
vn -0.2456 -0.8105 -0.5317
vn 0.1214 0.1971 -0.9728
vn -0.6214 -0.7253 -0.2962
vn 0.0465 0.7838 -0.6193
vn -0.5365 0.3317 -0.7760
vn 0.3835 -0.8105 -0.4427
vn 0.3222 -0.7251 -0.6086
vn -0.2998 0.8458 -0.4412
vn 0.7229 -0.4950 -0.4821
vn 0.1134 0.8895 -0.4425
vn 0.9055 0.2236 -0.3606
vn 0.3013 -0.8669 -0.3970
vn -0.3936 0.9190 -0.0243
s 0
usemtl Default_OBJ
f 1//1 4//1 2//1
f 3//2 4//2 1//2
f 3//3 5//3 4//3
f 6//4 2//4 4//4
f 5//5 7//5 4//5
f 6//6 4//6 7//6
f 9//7 8//7 2//7
f 10//8 8//8 9//8
f 9//9 2//9 6//9
f 9//10 13//10 10//10
f 7//11 9//11 6//11
f 3//12 12//12 5//12
f 11//13 8//13 10//13
f 7//14 13//14 9//14
f 11//15 14//15 8//15
f 13//16 7//16 5//16
f 10//17 16//17 11//17
f 13//18 5//18 12//18
f 15//19 13//19 12//19
f 16//20 14//20 11//20
f 17//21 15//21 12//21
f 15//22 10//22 13//22
f 17//23 16//23 10//23
f 10//24 15//24 17//24
f 20//25 19//25 18//25
f 21//26 22//26 18//26
f 22//27 23//27 18//27
f 18//28 23//28 20//28
f 20//29 24//29 19//29
f 24//30 25//30 19//30
f 24//31 20//31 23//31
f 25//32 24//32 29//32
f 27//33 23//33 22//33
f 27//34 24//34 23//34
f 26//35 22//35 21//35
f 27//36 22//36 26//36
f 25//37 29//37 30//37
f 30//38 28//38 25//38
f 26//39 24//39 27//39
f 31//40 24//40 26//40
f 33//41 28//41 30//41
f 32//42 30//42 29//42
f 29//43 24//43 31//43
f 31//44 32//44 29//44
f 32//45 33//45 30//45
f 33//46 32//46 31//46
f 36//47 35//47 34//47
f 36//48 34//48 37//48
f 38//49 35//49 36//49
f 39//50 35//50 38//50
f 37//51 38//51 36//51
f 38//52 41//52 39//52
f 41//53 38//53 37//53
f 41//54 40//54 39//54
f 42//55 40//55 41//55
f 45//56 43//56 44//56
f 48//57 45//57 44//57
f 45//58 46//58 43//58
f 46//59 47//59 43//59
f 49//60 47//60 46//60
f 46//61 45//61 48//61
f 46//62 50//62 49//62
f 48//63 50//63 46//63
f 51//64 47//64 49//64
f 52//65 51//65 49//65
f 50//66 52//66 49//66
f 53//67 55//67 54//67
f 55//68 53//68 56//68
f 57//69 54//69 55//69
f 54//70 57//70 58//70
f 56//71 59//71 55//71
f 60//72 58//72 57//72
f 60//73 57//73 55//73
f 60//74 55//74 59//74
f 60//75 61//75 58//75
f 60//76 59//76 62//76
f 61//77 60//77 62//77
f 63//78 65//78 64//78
f 65//79 66//79 64//79
f 65//80 67//80 66//80
f 69//81 66//81 67//81
f 66//82 69//82 68//82
f 69//83 70//83 68//83
f 73//84 71//84 72//84
f 73//85 74//85 71//85
f 75//86 74//86 76//86
f 74//87 73//87 76//87
f 76//88 73//88 75//88
f 71//89 74//89 75//89
f 79//90 78//90 77//90
f 79//91 81//91 78//91
f 83//92 80//92 82//92
f 82//93 81//93 79//93
f 83//94 82//94 79//94
f 85//95 86//95 84//95
f 89//96 88//96 87//96
f 89//97 84//97 86//97
f 88//98 89//98 90//98
f 90//99 89//99 86//99
f 95//100 93//100 96//100
f 94//101 91//101 98//101
f 96//102 93//102 94//102
f 98//103 91//103 92//103
f 97//104 98//104 92//104
f 96//105 97//105 95//105
f 98//106 96//106 94//106
f 96//107 98//107 97//107
f 101//108 102//108 103//108
f 105//109 100//109 99//109
f 104//110 105//110 99//110
f 102//111 106//111 103//111
f 103//112 108//112 101//112
f 104//113 107//113 105//113
f 105//114 107//114 100//114
f 102//115 100//115 107//115
f 102//116 107//116 106//116
f 106//117 108//117 103//117
f 104//118 108//118 107//118
f 107//119 108//119 106//119
f 112//120 110//120 109//120
f 111//121 112//121 109//121
f 116//122 115//122 110//122
f 112//123 116//123 110//123
f 117//124 111//124 113//124
f 111//125 117//125 112//125
f 118//126 115//126 116//126
f 117//127 116//127 112//127
f 114//128 117//128 113//128
f 117//129 114//129 118//129
f 118//130 116//130 117//130
f 125//131 121//131 123//131
f 126//132 122//132 119//132
f 127//133 120//133 121//133
f 124//134 126//134 120//134
f 126//135 119//135 120//135
f 120//136 127//136 124//136
f 129//137 122//137 126//137
f 121//138 125//138 127//138
f 128//139 125//139 123//139
f 130//140 126//140 124//140
f 128//141 127//141 125//141
f 132//142 128//142 123//142
f 131//143 122//143 129//143
f 127//144 133//144 124//144
f 133//145 127//145 128//145
f 134//146 126//146 130//146
f 126//147 134//147 129//147
f 133//148 130//148 124//148
f 131//149 132//149 123//149
f 131//150 135//150 132//150
f 132//151 133//151 128//151
f 133//152 134//152 130//152
f 135//153 129//153 134//153
f 129//154 135//154 131//154
f 132//155 135//155 134//155
f 132//156 134//156 133//156
f 137//157 136//157 138//157
f 139//158 136//158 137//158
f 137//159 143//159 139//159
f 140//160 141//160 138//160
f 138//161 141//161 137//161
f 142//162 140//162 138//162
f 145//163 141//163 140//163
f 143//164 144//164 139//164
f 143//165 137//165 141//165
f 140//166 142//166 145//166
f 146//167 142//167 138//167
f 142//168 146//168 147//168
f 147//169 145//169 142//169
f 143//170 149//170 144//170
f 148//171 149//171 141//171
f 141//172 149//172 143//172
f 145//173 148//173 141//173
f 150//174 145//174 147//174
f 148//175 145//175 150//175
f 144//176 149//176 139//176
f 150//177 151//177 148//177
f 151//178 149//178 148//178
f 151//179 147//179 146//179
f 151//180 150//180 147//180
f 12//181 3//181 17//181
f 1//182 14//182 16//182
f 28//183 19//183 25//183
f 18//184 33//184 21//184
f 43//185 51//185 44//185
f 48//186 44//187 51//186
f 37//188 42//188 41//189
f 35//190 39//190 40//190
f 50//191 35//191 48//191
f 58//192 61//192 54//192
f 59//193 56//193 62//193
f 61//194 62//195 56//194
f 59//196 55//196 47//196
f 65//197 69//198 67//198
f 65//199 68//199 70//199
f 68//200 64//201 66//200
f 72//202 76//202 73//202
f 75//203 72//203 71//203
f 79//204 77//204 83//204
f 83//205 77//205 80//205
f 78//206 82//206 80//206
f 90//207 86//207 88//207
f 89//208 87//208 84//208
f 86//209 85//209 88//209
f 88//210 84//210 87//210
f 84//211 88//211 85//211
f 87//212 84//212 85//212
f 87//213 85//213 88//213
f 94//214 93//214 91//214
f 91//215 93//215 92//215
f 95//216 92//217 93//217
f 101//218 100//218 102//218
f 108//219 104//219 101//219
f 99//220 101//220 104//220
f 151//221 139//221 149//221
f 2//222 14//222 1//222
f 33//223 26//223 21//223
f 146//224 136//224 139//224
f 120//225 119//225 121//225
f 131//226 123//226 122//226
f 123//227 119//227 122//227
f 118//228 114//228 115//228
f 110//229 111//229 109//229
f 111//230 110//230 115//230
f 17//182 3//182 16//182
f 3//182 1//182 16//182
f 28//183 18//231 19//183
f 18//184 28//184 33//184
f 43//232 47//232 51//232
f 51//233 52//187 50//186
f 50//187 48//187 51//186
f 37//189 34//189 42//189
f 42//190 34//190 40//190
f 34//190 35//190 40//190
f 56//195 53//195 54//195
f 54//194 61//194 56//194
f 65//197 70//197 69//197
f 65//199 63//199 68//199
f 68//234 63//234 64//234
f 75//203 76//203 72//235
f 80//206 77//206 78//206
f 78//236 81//206 82//206
f 95//217 97//217 92//217
f 101//218 99//218 100//218
f 151//221 146//221 139//221
f 2//237 8//237 14//237
f 33//238 31//238 26//238
f 146//224 138//224 136//224
f 123//227 121//227 119//227
f 115//230 114//230 111//230
f 114//230 113//230 111//230
