# Blender 3.1.0
# www.blender.org
mtllib oversimplified_lower.mtl
o simplified_lower
v -17.129812 -31.263752 -37.311314
v -20.036015 -33.611256 -38.577190
v -18.342714 -26.538200 -37.846840
v -18.871119 -22.460814 -39.376396
v -21.436220 -24.700603 -37.429653
v -24.913948 -24.918571 -36.615425
v -27.406315 -31.526035 -42.281212
v -17.032879 -30.588873 -43.050884
v -14.456940 -42.394726 -39.183151
v -14.152339 -37.783417 -45.875935
v -15.978638 -36.080631 -38.400963
v -18.927952 -44.815483 -39.213909
v -20.843813 -34.039463 -38.413467
v -20.933586 -40.661152 -38.393757
v -23.385633 -43.591526 -42.465710
v -25.272160 -38.165760 -41.309769
v -14.183398 -50.554737 -39.918793
v -13.319767 -46.390320 -39.834740
v -17.056332 -51.317539 -40.185066
v -18.036793 -45.350193 -39.071735
v -19.950537 -50.111294 -46.136745
v -21.343603 -47.738632 -44.551453
v -10.773941 -54.974300 -42.866581
v -12.488610 -54.000294 -41.026791
v -14.226409 -51.233364 -42.021481
v -12.990458 -58.085629 -41.682362
v -15.151539 -57.260517 -39.063068
v -17.142412 -52.238636 -40.437325
v -18.507187 -56.221298 -48.032207
v 9.860568 -67.969475 -47.374420
v 8.267171 -68.432800 -48.728420
v 17.478060 -65.522514 -49.909721
v -6.900979 -62.516331 -43.228603
v -9.706807 -57.042233 -43.750210
v -8.862747 -63.836548 -38.498077
v -10.745445 -59.367954 -38.422028
v -13.523665 -59.587868 -39.687981
v -12.709687 -63.509602 -46.152893
v -4.460703 -64.213173 -43.794910
v -4.382653 -67.407433 -38.451797
v -9.458890 -65.140549 -38.933311
v -7.749579 -65.753265 -45.111553
v -3.722504 -68.223534 -38.682625
v 2.115934 -68.305298 -38.707325
v -2.259353 -69.250099 -45.967789
v 1.826802 -68.330605 -38.720207
v 5.387592 -67.750198 -45.136887
v 7.608672 -69.847549 -39.506424
v 6.231050 -68.468216 -38.519993
v 9.898324 -66.876381 -43.703686
v 12.021453 -66.345818 -38.169052
v 17.164959 -60.775635 -38.768105
v 17.222601 -65.462082 -48.643967
v 12.783446 -58.763367 -44.861652
v 13.496623 -65.641197 -38.174686
v 11.916480 -65.256424 -38.743992
v 20.716377 -54.036270 -39.218662
v 16.256254 -54.845436 -41.127888
v 19.165485 -57.701584 -37.656254
v 16.517067 -59.758385 -39.670738
v 19.633133 -59.073887 -40.216354
v 24.682156 -49.431908 -38.071697
v 21.993139 -46.067879 -39.527271
v 18.732996 -49.777634 -39.034637
v 21.039894 -53.170383 -37.396004
v 19.880095 -53.925613 -41.369534
v 30.992701 -42.042057 -43.762867
v 23.517050 -36.027660 -37.670856
v 26.613396 -38.947605 -35.879421
v 28.594400 -45.576839 -41.400234
v 20.044231 -39.538761 -38.799995
v 18.894835 -40.950912 -43.876534
v 24.632967 -44.748062 -37.057793
v 19.585402 -44.672031 -38.907089
v 25.962662 -25.537958 -36.363426
v 29.735895 -29.271454 -34.490219
v 32.709667 -33.406998 -39.793755
v 23.202913 -31.259325 -37.402435
v 22.035189 -30.120062 -41.787262
v 25.532064 -35.635662 -36.599277
v 26.790236 -22.477953 -44.697136
v -27.008636 -24.937834 -40.045238
v 21.877264 -35.537285 -43.737423
v 34.718861 -32.676453 -42.885521
v 30.419289 -39.820599 -43.641521
v 29.885443 -46.066010 -46.483147
v 24.306627 -46.961636 -41.328644
v 25.859362 -51.755917 -46.898136
v 16.463070 -52.092815 -49.365498
v 18.615332 -48.288467 -43.946434
v 18.744694 -40.901814 -49.446217
v 24.125223 -56.499336 -49.251160
v 15.821289 -52.840889 -44.843349
v 11.043395 -58.098053 -45.622040
v 7.051108 -61.046097 -49.491177
v 15.532793 -58.117596 -44.167805
v 18.966696 -62.856895 -47.204597
v 5.148260 -63.112518 -45.661530
v 11.098848 -62.396896 -43.931385
v -2.884319 -65.307404 -43.596703
v -3.714294 -60.187443 -45.505939
v 6.418741 -64.187874 -44.640556
v -1.004285 -60.480087 -48.888084
v -7.704068 -55.124660 -49.140160
v 6.807720 -68.574768 -43.686810
v -6.721510 -61.466553 -45.138752
v -7.961842 -56.788292 -46.485596
v -1.569696 -69.444763 -49.496929
v -1.629798 -67.873978 -48.709316
v -14.071354 -50.625942 -43.056904
v -13.996463 -57.995789 -44.090771
v -17.321655 -57.016293 -48.353058
v -14.383508 -61.706738 -48.626633
v -15.953419 -30.937185 -48.916534
v -19.445982 -22.628765 -41.313137
v -17.872961 -51.418598 -42.142338
v -21.640434 -48.459175 -48.050804
v -18.749590 -54.552948 -48.085819
v -28.279083 -35.035244 -47.653400
v -24.705904 -43.376263 -47.213055
v -22.125792 -45.069752 -44.325527
v -23.305925 -34.701576 -41.339748
v -30.961523 -27.239515 -45.354755
v -11.260469 -52.724617 -46.714424
v 4.859508 -69.052261 -47.343929
v -12.721090 -64.070587 -48.477665
v -4.016378 -67.118393 -41.905590
v -12.895228 -43.011967 -48.224224
v -15.321165 -43.593388 -42.839256
v 12.235034 -65.779068 -42.834518
v 22.210901 -35.670723 -49.007751
v 23.225809 -27.934019 -42.287441
v 23.357929 -28.810192 -46.447155
v 26.200207 -24.800266 -36.545948
v 27.999475 -36.341499 -39.772430
v -17.441160 -32.723713 -41.040512
v -11.157868 -57.105972 -44.143253
v -10.632219 -49.683842 -48.471741
v 1.070573 -68.435501 -43.510654
v 18.893579 -52.634171 -40.504002
vn -0.4001 0.0012 0.9165
vn 0.3359 0.3687 0.8668
vn 0.1604 0.5365 0.8285
vn 0.9788 0.1697 0.1143
vn -0.7148 -0.2541 -0.6515
vn 0.9600 0.2082 0.1871
vn 0.5148 0.1541 0.8433
vn 0.3158 0.7563 0.5729
vn 0.3846 0.9159 -0.1147
vn -0.5930 -0.5015 0.6300
vn -0.6067 -0.4255 0.6715
vn 0.6126 0.3084 -0.7277
vn -0.6552 -0.3683 0.6596
vn -0.5538 0.0100 0.8326
vn 0.1486 -0.0507 0.9876
vn -0.7832 -0.5903 0.1952
vn -0.3998 -0.9165 0.0087
vn 0.2325 -0.9494 0.2113
vn -0.1225 0.1625 -0.9791
vn 0.4035 0.5233 0.7506
vn 0.6303 0.5825 0.5132
vn 0.7239 0.5857 0.3646
vn 0.6629 -0.1973 0.7223
vn 0.7255 -0.1950 0.6600
vn 0.2454 0.3452 0.9059
vn 0.2862 0.4782 0.8303
vn -0.3381 -0.9410 0.0175
vn 0.2983 -0.9541 -0.0246
vn 0.8171 0.4528 0.3569
vn 0.7931 0.3604 -0.4910
vn 0.8682 0.4174 -0.2684
vn 0.9232 -0.2035 0.3261
vn 0.6333 -0.7725 0.0471
vn 0.8303 0.3423 0.4399
vn -0.2317 0.9073 0.3509
vn -0.3958 -0.1821 0.9001
vn -0.9867 -0.1603 -0.0269
vn -0.9932 -0.0941 -0.0680
vn -0.6821 -0.6602 0.3146
vn 0.3184 0.8157 0.4830
vn -0.3513 -0.6435 0.6801
vn 0.0182 0.2463 0.9690
vn -0.4059 -0.9136 -0.0217
vn -0.0133 -0.9905 0.1369
vn 0.2766 0.9311 0.2377
vn -0.2766 -0.9311 -0.2377
vn -0.3461 0.9372 0.0429
vn 0.3461 -0.9372 -0.0429
vn 0.7844 -0.5585 0.2696
vn -0.5261 0.6193 0.5828
vn -0.2050 -0.9746 -0.0896
vn -0.2562 0.3050 0.9172
vn -0.8616 0.2704 -0.4297
vn 0.8927 -0.2072 0.4001
vn 0.9205 -0.2486 0.3014
vn 0.2487 0.0266 0.9682
vn -0.8345 -0.0914 0.5434
vn -0.4159 0.4998 0.7597
vn 0.2681 -0.8278 0.4927
vn -0.8632 -0.2175 0.4556
vn -0.7682 -0.6020 0.2176
vn -0.8474 -0.4183 0.3269
vn -0.1692 0.2744 0.9466
vn -0.1695 0.3328 0.9276
vn 0.6611 0.7466 0.0742
vn 0.8211 -0.1998 0.5346
vn -0.7044 0.7088 -0.0377
vn 0.6545 -0.3587 0.6655
vn -0.9767 0.0832 0.1980
vn -0.2817 -0.3937 -0.8750
vn -0.0630 -0.9893 0.1313
vn -0.0901 -0.0127 0.9958
vn -0.5821 0.0337 0.8124
vn -0.5695 -0.1037 0.8154
vn 0.7276 0.6757 -0.1189
vn -0.4787 -0.0438 0.8769
vn -0.1623 0.0939 0.9823
vn -0.5341 0.0737 0.8422
vn -0.8732 0.3619 0.3266
vn 0.4764 -0.5437 0.6910
vn -0.8854 -0.4494 0.1190
vn 0.6324 -0.4911 0.5991
vn -0.9508 0.1956 0.2403
vn -0.8489 0.5275 -0.0332
vn -0.9058 0.2631 0.3320
vn -0.9222 0.3371 0.1893
vn -0.7405 0.6721 0.0061
vn -0.6816 0.7143 0.1590
vn 0.3458 0.3765 0.8594
vn 0.0433 0.8701 0.4910
vn 0.3477 0.3797 0.8573
vn -0.1733 0.5627 0.8083
vn -0.6316 0.2767 0.7242
vn 0.0677 0.9972 -0.0321
vn 0.5658 0.7262 0.3905
vn 0.2447 -0.9686 0.0435
vn 0.1580 0.6550 0.7390
vn 0.6295 0.6294 0.4556
vn -0.0632 0.4098 0.9100
vn -0.7385 -0.4896 0.4636
vn -0.8493 -0.4049 0.3388
vn -0.7646 -0.5232 0.3764
vn -0.6447 -0.5445 0.5366
vn -0.9317 -0.3496 0.0985
vn -0.6446 -0.5446 0.5366
vn -0.7731 -0.1478 0.6168
vn -0.8357 -0.3350 0.4352
vn -0.0496 -0.8605 -0.5070
vn -0.4195 -0.8969 0.1397
vn -0.2985 0.2361 0.9247
vn -0.2977 0.2361 0.9250
vn -0.0845 -0.0704 0.9939
vn 0.0638 -0.1176 0.9910
vn 0.6468 -0.7586 -0.0783
vn 0.9663 0.2532 0.0461
vn 0.4994 0.4477 -0.7417
vn -0.4879 0.2656 -0.8315
vn 0.6122 0.3626 -0.7027
vn 0.0920 0.0010 -0.9958
vn 0.4345 -0.8789 0.1968
vn 0.2785 -0.7563 0.5920
vn 0.2785 -0.7563 0.5919
vn -0.3457 -0.1085 -0.9321
vn 0.6907 0.5819 -0.4293
vn -0.4405 -0.1235 -0.8892
vn 0.4957 0.0684 0.8658
vn 0.7090 0.6387 -0.2989
vn -0.8416 -0.3066 -0.4447
vn -0.9474 0.3060 0.0939
vn -0.9653 0.2522 -0.0675
vn -0.9923 0.1111 -0.0549
vn -0.8292 0.5550 -0.0665
vn -0.8560 0.4980 -0.1388
vn -0.4101 0.8845 0.2223
vn -0.8556 0.5004 -0.1326
vn 0.5584 -0.4122 0.7199
vn 0.6644 -0.3558 0.6572
vn 0.6680 -0.5121 0.5399
vn 0.9546 0.1956 0.2247
vn 0.4994 0.4472 0.7421
vn 0.5282 0.6955 0.4872
vn 0.7321 0.6112 0.3006
vn 0.5282 0.6955 0.4871
vn 0.1895 -0.9815 0.0272
vn -0.1755 -0.9844 -0.0151
vn 0.8712 0.2544 0.4199
vn 0.7559 0.5713 0.3196
vn 0.8597 0.2756 0.4301
vn 0.7908 -0.5935 0.1496
vn 0.2468 -0.9420 0.2275
vn 0.7406 -0.4364 0.5110
vn 0.7300 -0.4987 0.4673
vn -0.8345 -0.0913 0.5434
vn -0.0721 -0.2400 0.9681
vn -0.3384 0.1452 0.9297
vn -0.2160 -0.0726 0.9737
vn -0.7707 0.4446 0.4565
vn -0.4421 0.8626 0.2458
vn -0.5356 -0.3172 0.7826
vn 0.4198 -0.6462 0.6373
vn -0.0873 0.1487 0.9850
vn -0.4405 -0.2142 0.8718
vn 0.7192 0.2303 0.6555
vn 0.7901 0.1761 0.5872
vn 0.7422 -0.5074 0.4377
s 1
usemtl Default_OBJ
f 3//1 2//1 1//1
f 5//2 3//2 4//2
f 4//3 6//3 5//3
f 8//4 4//4 3//4
f 8//5 2//5 6//5
f 10//6 11//6 9//6
f 13//7 11//8 10//9
f 12//10 14//11 15//12
f 16//13 15//13 14//13
f 13//14 16//14 14//14
f 17//15 18//15 20//15
f 22//16 21//17 19//18
f 18//19 19//19 20//19
f 25//20 24//21 23//22
f 23//23 24//23 26//23
f 26//24 24//24 27//24
f 24//25 28//25 27//25
f 28//26 24//21 25//20
f 29//27 26//27 27//27
f 30//28 31//28 32//28
f 36//29 33//30 34//31
f 35//32 33//33 36//34
f 37//35 36//35 34//35
f 35//36 36//36 37//36
f 37//37 38//38 35//39
f 39//40 41//41 40//42
f 40//42 41//41 42//43
f 43//44 45//44 44//44
f 46//45 48//45 47//45
f 47//46 48//46 46//46
f 49//47 51//47 50//47
f 51//48 49//48 50//48
f 52//49 55//49 53//49
f 52//50 54//50 56//50
f 55//51 56//51 53//51
f 56//52 55//52 52//52
f 61//53 57//54 59//55
f 19//18 17//56 20//57
f 57//58 58//58 59//58
f 59//59 60//59 61//59
f 27//60 28//60 29//61
f 64//62 66//62 65//62
f 63//63 64//63 62//63
f 64//64 65//64 62//64
f 67//65 68//65 69//65
f 70//66 67//66 69//66
f 71//67 68//67 72//67
f 73//68 70//68 69//68
f 74//69 71//69 72//69
f 74//70 67//70 70//70
f 74//71 70//71 73//71
f 71//72 73//73 69//74
f 76//75 77//75 75//75
f 76//76 78//77 80//78
f 79//79 78//79 75//79
f 77//80 76//80 80//80
f 80//81 78//81 79//81
f 88//82 86//82 87//82
f 89//83 90//83 91//83
f 89//84 93//84 90//84
f 91//85 90//85 83//86
f 89//87 94//87 93//87
f 94//88 89//88 95//88
f 101//89 98//90 95//91
f 98//92 102//92 99//93
f 95//94 103//94 101//94
f 104//95 101//95 103//95
f 30//96 105//96 31//96
f 101//97 107//98 106//99
f 111//100 112//100 113//100
f 116//101 117//101 118//101
f 120//102 117//102 121//102
f 122//103 123//104 119//105
f 122//106 119//107 120//107
f 109//108 31//108 125//108
f 126//109 108//109 127//109
f 94//110 96//111 93//112
f 2//113 3//113 5//113
f 1//114 2//114 8//114
f 3//115 1//115 8//115
f 2//116 7//116 6//116
f 6//117 4//117 8//117
f 12//10 15//12 16//118
f 18//119 17//119 19//119
f 130//120 32//121 97//122
f 25//123 23//123 26//123
f 26//124 29//124 28//124
f 25//125 26//125 28//125
f 11//8 13//7 14//126
f 52//127 53//127 54//127
f 53//128 56//128 54//128
f 133//129 83//130 132//131
f 131//132 91//132 83//132
f 132//133 134//134 81//133
f 81//135 133//135 132//135
f 84//136 135//136 85//136
f 86//137 85//137 87//137
f 88//138 92//138 86//138
f 115//139 136//139 114//139
f 137//140 107//140 124//140
f 104//141 124//142 107//143
f 31//144 105//144 125//144
f 125//145 139//145 109//145
f 128//146 110//147 138//148
f 32//149 92//149 97//149
f 61//150 97//151 92//152
f 20//153 22//16 19//18
f 69//74 68//154 71//72
f 71//72 74//155 73//73
f 76//76 75//156 78//77
f 101//89 100//89 98//90
f 94//157 95//158 99//93
f 95//158 98//92 99//93
f 101//97 104//98 107//98
f 122//103 82//159 123//104
f 130//120 30//160 32//121
f 12//161 9//162 14//126
f 9//162 11//8 14//126
f 133//129 131//130 83//130
f 104//141 138//163 124//142
f 129//146 110//147 128//146
f 110//147 124//164 138//148
f 92//152 88//165 61//150
f 61//150 60//150 97//151
l 108 109
o simplified_lower.001
v 34.718861 -32.676453 -42.885521
