# Blender 3.1.0
# www.blender.org
mtllib upper_new.mtl
o upper_ios_6
v -18.432629 -32.250977 -32.380733
v -14.511121 -27.752377 -27.602922
v -17.140326 -22.956720 -28.609150
v -15.562782 -28.907785 -31.468090
v -16.499420 -25.967791 -31.213776
v -19.031401 -28.184046 -34.281334
v -19.663635 -23.368340 -32.547268
v -20.840994 -30.844261 -31.845423
v -21.338928 -22.815102 -27.884611
v -22.244221 -34.304764 -31.409498
v -21.389233 -28.824247 -30.536036
v -23.644274 -24.351961 -29.763367
v -19.208832 -25.377684 -32.494793
v -24.387447 -31.963625 -33.638054
v -21.675184 -26.505478 -30.879646
v -24.938080 -29.341703 -31.590754
v -25.469410 -32.822926 -26.921696
v -25.005234 -26.703985 -32.571510
v -26.244194 -28.083529 -29.338861
v -12.306169 -37.674450 -27.381340
v -13.471324 -42.279121 -30.959871
v -12.590659 -39.291351 -32.443157
v -16.504337 -32.587975 -32.467831
v -13.572348 -36.564430 -31.700958
v -15.351374 -39.318325 -34.675381
v -19.250124 -43.676884 -33.271740
v -16.409336 -36.357635 -33.934700
v -22.794371 -34.877899 -31.899080
v -19.008190 -39.154686 -31.921064
v -18.928986 -36.951977 -32.543270
v -21.765028 -41.581287 -34.516357
v -20.523317 -34.330734 -32.901768
v -22.148346 -38.831676 -33.798653
v -11.129644 -46.526234 -27.922260
v -13.048675 -42.885159 -29.899515
v -11.665610 -46.794071 -34.388588
v -12.776230 -49.652187 -30.891937
v -14.634394 -44.499977 -33.449337
v -15.622988 -49.965443 -33.524658
v -15.898554 -46.248512 -32.883675
v -16.987047 -50.149723 -32.338089
v -18.082474 -47.414703 -35.341820
v -18.926981 -43.998894 -33.204697
v -20.166910 -47.455807 -31.655968
v -19.504812 -49.264393 -27.156664
v -20.621597 -46.189934 -26.417736
v -9.409877 -54.862568 -28.913876
v -10.798191 -50.399940 -29.039194
v -11.122997 -55.509071 -33.032143
v -10.468691 -52.266983 -34.714363
v -13.104512 -50.297382 -32.543900
v -14.006590 -56.919750 -33.677994
v -13.501106 -53.100304 -33.236660
v -17.207447 -50.562614 -33.647598
v -16.437555 -53.975204 -35.245064
v -17.748505 -56.161663 -26.730251
v -18.171337 -54.790051 -30.939075
v -17.247997 -51.436741 -29.016785
v -8.690513 -57.802166 -30.206409
v -7.186215 -58.654644 -28.370235
v -12.400179 -57.879272 -32.648190
v -9.728155 -63.552395 -34.685017
v -13.044276 -58.855270 -34.986313
v -10.479805 -64.380905 -33.608620
v -13.688800 -61.915466 -35.011497
v -14.505327 -63.314522 -25.943365
v -14.910297 -57.376320 -32.393978
v -10.131939 -63.796970 -29.578432
v -3.116186 -66.757706 -31.293407
v -4.746602 -62.749729 -28.551224
v -9.194093 -64.092850 -34.045174
v -3.551430 -68.350784 -35.367229
v -6.087261 -69.342995 -31.588413
v -9.885054 -65.697296 -34.428265
v -6.018157 -68.640739 -27.973791
v -9.821668 -64.576172 -29.137848
v 4.786555 -67.951103 -30.721394
v 5.230388 -70.082321 -35.750420
v -2.099367 -66.978302 -31.166214
v 3.716639 -72.213142 -30.423939
v -2.315611 -69.948990 -35.835995
v -2.282688 -68.672844 -34.527977
v 3.108203 -71.749901 -27.252386
v -3.188398 -70.709007 -27.551815
v -3.528286 -68.132675 -30.333448
v 8.393914 -65.019348 -27.271799
v 12.571816 -68.112022 -30.500948
v 6.563248 -69.236862 -32.306080
v 13.732800 -69.743477 -35.166477
v 6.408284 -70.524185 -36.324169
v 12.932713 -71.729797 -32.846073
v 12.771413 -71.001480 -26.783335
v 5.152257 -71.276497 -29.922247
v 6.249540 -72.971268 -28.662609
v 12.161624 -64.667358 -27.349430
v 17.881184 -63.329933 -32.443600
v 12.979759 -67.947701 -33.568100
v 18.959396 -64.698479 -33.662151
v 14.185360 -69.001244 -34.497330
v 16.062035 -69.517113 -28.442091
v 18.756735 -66.538475 -26.419230
v 13.151900 -69.013092 -33.445511
v 13.281000 -69.104889 -33.746212
v 13.241900 -69.116592 -33.739311
v 16.854122 -57.894241 -28.224684
v 22.874981 -56.767456 -31.868536
v 17.462959 -62.381859 -29.939951
v 23.447983 -58.430016 -33.626812
v 19.894337 -60.382748 -33.105953
v 19.734034 -64.412231 -33.209721
v 22.773460 -61.948612 -33.784187
v 24.296394 -62.743080 -25.426018
v 21.894632 -64.578743 -25.363409
v 22.628256 -49.763573 -29.802498
v 19.641537 -49.912605 -28.349005
v 18.295006 -54.512711 -27.461912
v 26.374556 -50.618626 -31.855906
v 22.558867 -52.929558 -31.390055
v 19.308268 -52.964752 -33.131073
v 24.862183 -52.606098 -34.172279
v 23.323555 -56.487682 -32.453663
v 27.483711 -53.902794 -24.901865
v 26.987564 -55.606190 -29.794827
v 25.046227 -57.460899 -26.943996
v 20.100239 -45.856789 -26.129412
v 23.624786 -43.468914 -30.156342
v 21.569395 -47.041470 -32.480362
v 22.816168 -49.369473 -29.796591
v 25.887264 -45.139565 -30.178022
v 23.673704 -46.272091 -32.841366
v 28.960691 -44.024364 -30.024729
v 25.545675 -47.396683 -30.770258
v 28.746422 -46.725395 -32.626900
v 26.835503 -50.628689 -31.310905
v 29.781431 -46.748058 -24.773758
v 28.398029 -50.246830 -25.470867
v 30.247702 -47.721001 -30.662031
v 22.522390 -33.830345 -26.120731
v 23.544670 -33.949947 -30.910444
v 20.299101 -39.630604 -26.160227
v 22.446592 -37.095371 -29.564756
v 30.075651 -33.712391 -29.251928
v 21.808722 -40.295994 -30.223070
v 25.438688 -36.183945 -31.271725
v 31.113546 -36.206966 -31.746908
v 32.410645 -36.601444 -24.744656
v 24.015638 -40.389191 -32.291893
v 27.310123 -36.856789 -29.941832
v 32.036091 -42.421211 -23.554802
v 27.951180 -44.250584 -30.281357
v 32.974380 -41.193245 -26.204165
v 27.768137 -39.049835 -29.766691
v 31.595919 -38.912857 -30.374441
v 30.205347 -43.243389 -31.007780
v 30.008972 -40.792992 -31.688643
v 27.330715 -21.591240 -26.974331
v 24.579376 -24.065002 -27.996397
v 22.622452 -29.993383 -25.833252
v 29.616636 -24.321104 -27.145189
v 28.117786 -23.756718 -29.581085
v 25.559824 -28.103209 -31.171236
v 33.065445 -25.335880 -28.910030
v 33.587772 -27.806002 -21.996870
v 27.111418 -25.728786 -29.744682
v 26.438473 -31.443222 -29.972429
v 33.783092 -27.999689 -27.668070
v 29.882010 -28.294876 -27.837997
v 33.655128 -32.125439 -23.172491
v 29.266068 -29.825428 -28.664124
v 30.386143 -33.463425 -29.059586
v 33.051559 -31.363737 -30.247919
v 20.537859 -46.273907 -26.321726
vn 0.7604 -0.6493 -0.0128
vn 0.5695 -0.2777 -0.7736
vn 0.8670 0.4185 -0.2705
vn 0.6678 0.5632 -0.4867
vn 0.8889 0.3122 -0.3352
vn 0.0140 0.9935 -0.1128
vn 0.4397 0.0762 -0.8949
vn -0.4293 -0.4335 -0.7923
vn 0.6401 0.2663 -0.7207
vn -0.2325 -0.0282 -0.9722
vn -0.8496 0.1045 -0.5170
vn 0.2191 0.5719 -0.7905
vn -0.3910 0.8870 -0.2457
vn 0.4569 0.4981 -0.7370
vn -0.8374 0.2549 -0.4836
vn 0.5047 -0.3063 -0.8071
vn -0.4773 -0.1861 -0.8588
vn -0.4988 -0.1353 -0.8561
vn -0.5576 -0.0816 -0.8261
vn 0.1364 0.6273 -0.7667
vn -0.6224 -0.7575 -0.1972
vn 0.3126 -0.3240 -0.8929
vn 0.4552 -0.0753 -0.8872
vn -0.7334 0.3160 -0.6019
vn 0.3142 0.6473 -0.6945
vn -0.9505 -0.2498 -0.1851
vn -0.8222 0.5644 -0.0743
vn -0.8911 -0.1779 -0.4175
vn 0.9629 -0.2682 0.0315
vn 0.9113 0.3746 -0.1709
vn 0.8098 0.5800 -0.0883
vn 0.5489 -0.4959 -0.6729
vn 0.5736 0.4009 -0.7143
vn 0.4184 -0.5952 -0.6860
vn 0.5875 0.3876 -0.7103
vn 0.6032 0.3024 -0.7381
vn -0.3499 0.8840 -0.3100
vn -0.5730 0.2625 -0.7764
vn -0.0560 0.3608 -0.9309
vn -0.6020 -0.0154 -0.7983
vn -0.3874 -0.3522 -0.8520
vn 0.5674 0.2076 -0.7968
vn -0.4279 -0.2314 -0.8737
vn 0.3268 0.0698 -0.9425
vn 0.5135 0.2830 -0.8101
vn -0.4465 0.3272 -0.8328
vn 0.4768 -0.2548 -0.8413
vn 0.9007 0.4246 -0.0922
vn 0.9048 -0.4220 -0.0575
vn 0.4112 0.7464 -0.5232
vn 0.4970 -0.7425 -0.4491
vn -0.3159 0.1385 -0.9386
vn -0.3410 -0.0571 -0.9383
vn -0.0843 -0.2510 -0.9643
vn -0.3739 -0.7496 -0.5462
vn 0.6945 0.1720 -0.6986
vn 0.4795 0.5476 -0.6858
vn -0.6451 -0.6672 -0.3723
vn -0.6580 -0.7272 -0.1955
vn -0.8672 0.0918 -0.4894
vn -0.9398 -0.3416 0.0010
vn -0.9501 0.2742 -0.1487
vn 0.9544 0.2957 -0.0419
vn 0.8855 -0.3420 -0.3147
vn 0.4321 0.8638 -0.2591
vn 0.4472 -0.8932 -0.0458
vn -0.3163 -0.3858 -0.8667
vn 0.1755 0.0900 -0.9803
vn -0.4811 0.2739 -0.8328
vn 0.2424 0.2003 -0.9493
vn 0.5600 0.0216 -0.8282
vn -0.6060 -0.7007 -0.3766
vn -0.5504 -0.8085 -0.2082
vn 0.4033 0.4610 -0.7905
vn -0.9251 -0.0315 -0.3784
vn -0.9688 0.2451 0.0378
vn -0.9716 0.1783 0.1557
vn 0.8025 0.2697 -0.5322
vn 0.6308 0.4028 -0.6633
vn 0.2671 0.8609 -0.4330
vn 0.1384 0.8998 -0.4137
vn 0.0787 -0.0084 -0.9969
vn -0.2277 -0.6883 -0.6888
vn -0.7539 0.1640 -0.6362
vn 0.0093 -0.9897 0.1426
vn -0.5504 -0.8163 -0.1755
vn -0.9739 -0.1942 -0.1177
vn 0.5328 0.6147 -0.5816
vn 0.5066 0.7832 -0.3604
vn 0.5457 -0.8245 0.1497
vn -0.0395 0.2481 -0.9679
vn -0.3991 -0.7849 -0.4739
vn -0.9091 0.4096 -0.0759
vn -0.7387 -0.6588 0.1421
vn -0.7429 -0.6530 0.1473
vn 0.1106 0.9186 -0.3795
vn 0.1533 0.8790 -0.4514
vn -0.0121 -0.9272 -0.3744
vn 0.0206 0.7154 -0.6984
vn -0.2569 -0.9596 -0.1151
vn -0.9883 0.1209 -0.0930
vn -0.1672 -0.9796 0.1110
vn -0.9060 -0.3600 -0.2227
vn 0.0547 0.7555 -0.6528
vn -0.0715 0.9359 -0.3451
vn -0.0536 0.9515 -0.3028
vn 0.1782 -0.7770 -0.6037
vn 0.9489 -0.3093 0.0624
vn -0.7363 -0.6400 -0.2197
vn -0.0137 -0.9524 -0.3045
vn 0.2546 -0.9593 0.1220
vn -0.5587 0.7010 -0.4433
vn -0.3000 0.4916 -0.8175
vn -0.2458 0.4676 -0.8491
vn 0.6706 -0.6922 -0.2668
vn -0.4273 -0.8217 0.3772
vn -0.5570 0.6308 -0.5402
vn -0.4480 0.7831 -0.4314
vn 0.7784 -0.6132 -0.1340
vn -0.3269 0.8555 -0.4015
vn -0.4231 0.5855 -0.6915
vn -0.4893 0.6150 -0.6183
vn -0.8195 0.1042 -0.5635
vn -0.1873 0.0797 -0.9791
vn -0.2118 0.0336 -0.9767
vn -0.8064 0.0473 -0.5895
vn 0.9589 0.2798 0.0479
vn 0.9653 -0.1764 -0.1927
vn 0.5979 -0.7804 -0.1831
vn 0.5943 -0.7838 -0.1803
vn -0.9599 0.2617 -0.1001
vn -0.3587 0.4247 -0.8313
vn 0.4300 0.3971 -0.8108
vn -0.2848 0.8169 -0.5015
vn -0.5175 0.7865 -0.3370
vn -0.5973 -0.7402 -0.3089
vn 0.9897 0.0701 -0.1248
vn -0.7714 0.0243 -0.6358
vn 0.4407 0.3427 -0.8297
vn 0.8687 -0.0942 -0.4863
vn 0.5820 -0.5108 -0.6327
vn 0.7801 -0.6112 0.1337
vn 0.4130 -0.8659 -0.2821
vn -0.7390 0.6105 -0.2848
vn -0.8311 -0.5488 -0.0899
vn 0.0302 0.0539 -0.9981
vn -0.3520 0.6442 -0.6790
vn 0.4524 0.6210 -0.6401
vn 0.7558 0.0568 -0.6523
vn -0.2144 0.6864 -0.6949
vn 0.2395 -0.6756 -0.6973
vn -0.3475 0.0181 -0.9375
vn 0.1849 -0.7839 -0.5928
vn -0.5250 0.2895 -0.8004
vn 0.8201 0.3619 -0.4432
vn 0.9453 0.3255 0.0211
vn 0.9117 -0.3876 0.1362
vn -0.4930 -0.0515 -0.8685
vn 0.5503 -0.4959 -0.6717
vn 0.6572 -0.7429 -0.1273
vn -0.9477 0.2417 -0.2083
vn -0.8885 0.3426 -0.3053
vn 0.2204 0.3350 -0.9161
vn -0.8922 0.2546 -0.3732
vn -0.4307 -0.2237 -0.8743
vn -0.6513 0.2752 -0.7072
vn 0.4973 -0.2555 -0.8291
vn -0.5428 0.3669 -0.7555
vn 0.8615 0.4904 -0.1319
vn -0.4344 0.5402 -0.7208
vn -0.4788 -0.7367 -0.4776
vn 0.9414 0.0084 0.3373
vn 0.5924 0.0596 -0.8035
vn -0.4016 -0.1560 -0.9024
vn 0.5548 0.0141 -0.8319
vn 0.9806 0.0851 -0.1768
vn -0.1224 -0.4662 -0.8762
vn 0.9587 0.1861 -0.2151
vn 0.5301 0.1020 -0.8418
vn -0.3383 0.0809 -0.9376
vn -0.1423 0.6450 -0.7509
vn 0.6885 -0.7197 -0.0897
vn 0.4081 -0.9129 0.0005
vn 0.8827 -0.2229 -0.4137
vn 0.7201 -0.1316 -0.6813
vn -0.7319 -0.2362 -0.6391
vn -0.3529 0.6646 -0.6586
vn 0.7221 0.6234 -0.2999
vn -0.4125 0.2823 -0.8661
vn -0.8874 0.1318 -0.4417
vn -0.5074 -0.3764 -0.7752
vn 0.5856 0.7763 0.2331
vn -0.1643 0.5847 -0.7944
vn 0.7623 -0.3435 -0.5486
vn 0.9624 0.2704 0.0239
vn -0.7409 -0.3909 -0.5461
vn -0.4216 0.1283 -0.8977
vn 0.6613 0.1715 -0.7302
vn 0.6477 0.1433 -0.7483
vn 0.5884 0.0977 -0.8027
vn 0.9994 0.0063 0.0342
vn 0.0704 -0.4059 -0.9112
vn 0.4943 -0.1755 -0.8514
vn -0.1446 0.5144 -0.8453
vn 0.3159 0.1981 -0.9279
vn 0.9854 -0.1384 -0.0990
vn -0.0117 0.6101 -0.7922
vn -0.3932 -0.0211 -0.9192
vn 0.5750 -0.8068 -0.1359
s 0
usemtl Default_OBJ
f 1//1 4//1 2//1
f 6//2 4//2 1//2
f 2//3 5//3 3//3
f 7//4 3//4 5//4
f 4//5 5//5 2//5
f 7//6 9//6 3//6
f 13//7 7//7 5//7
f 8//8 6//8 1//8
f 6//9 5//9 4//9
f 10//10 8//10 1//10
f 11//11 6//11 8//11
f 14//12 11//12 8//12
f 7//13 12//13 9//13
f 5//14 6//14 13//14
f 13//15 6//15 11//15
f 14//16 8//16 10//16
f 11//17 15//17 13//17
f 15//18 7//18 13//18
f 12//19 7//19 15//19
f 14//20 16//20 11//20
f 10//21 17//21 14//21
f 16//22 18//22 11//22
f 18//23 15//23 11//23
f 19//24 16//24 14//24
f 15//25 18//25 12//25
f 14//26 17//26 19//26
f 18//27 19//27 12//27
f 19//28 18//28 16//28
f 22//29 20//29 21//29
f 24//30 20//30 22//30
f 24//31 23//31 20//31
f 21//32 25//32 22//32
f 25//33 24//33 22//33
f 25//34 21//34 26//34
f 25//35 27//35 24//35
f 24//36 27//36 23//36
f 32//37 28//37 23//37
f 29//38 25//38 26//38
f 27//39 32//39 23//39
f 27//40 25//40 29//40
f 30//41 32//41 27//41
f 26//42 31//42 29//42
f 27//43 29//43 30//43
f 30//44 33//44 32//44
f 33//45 29//45 31//45
f 33//46 28//46 32//46
f 33//47 30//47 29//47
f 34//48 36//48 35//48
f 37//49 36//49 34//49
f 38//50 35//50 36//50
f 37//51 39//51 36//51
f 40//52 36//52 39//52
f 36//53 40//53 38//53
f 43//54 38//54 40//54
f 42//55 39//55 41//55
f 42//56 40//56 39//56
f 42//57 43//57 40//57
f 41//58 44//58 42//58
f 45//59 44//59 41//59
f 44//60 43//60 42//60
f 44//61 45//61 46//61
f 44//62 46//62 43//62
f 47//63 50//63 48//63
f 49//64 50//64 47//64
f 51//65 48//65 50//65
f 49//66 47//66 52//66
f 53//67 50//67 49//67
f 52//68 53//68 49//68
f 53//69 51//69 50//69
f 53//70 54//70 51//70
f 52//71 55//71 53//71
f 55//72 52//72 57//72
f 52//73 56//73 57//73
f 54//74 53//74 55//74
f 54//75 55//75 57//75
f 57//76 58//76 54//76
f 56//77 58//77 57//77
f 62//78 59//78 60//78
f 62//79 63//79 59//79
f 61//80 59//80 63//80
f 67//81 61//81 63//81
f 62//82 65//82 63//82
f 62//83 64//83 65//83
f 63//84 65//84 67//84
f 64//85 68//85 66//85
f 64//86 66//86 65//86
f 66//87 67//87 65//87
f 69//88 71//88 70//88
f 71//89 69//89 72//89
f 75//90 73//90 72//90
f 72//91 74//91 71//91
f 74//92 72//92 73//92
f 74//93 76//93 71//93
f 75//94 74//94 73//94
f 75//95 76//95 74//95
f 82//96 77//96 78//96
f 82//97 79//97 77//97
f 78//98 80//98 81//98
f 81//99 82//99 78//99
f 84//100 81//100 80//100
f 81//101 84//101 82//101
f 83//102 84//102 80//102
f 85//103 82//103 84//103
f 87//104 88//104 86//104
f 89//105 88//105 87//105
f 90//106 88//106 89//106
f 91//107 90//107 89//107
f 89//108 92//108 91//108
f 94//109 93//109 90//109
f 94//110 90//110 91//110
f 91//111 92//111 94//111
f 97//112 95//112 96//112
f 99//113 96//113 98//113
f 99//114 97//114 96//114
f 98//115 100//115 99//115
f 99//116 95//116 97//116
f 102//117 95//117 99//117
f 103//118 102//118 99//118
f 101//119 100//119 98//119
f 104//120 102//120 103//120
f 109//121 106//121 108//121
f 106//122 109//122 105//122
f 109//123 107//123 105//123
f 111//124 109//124 108//124
f 109//125 111//125 110//125
f 110//126 107//126 109//126
f 112//127 108//127 106//127
f 108//128 112//128 111//128
f 112//129 110//129 111//129
f 112//130 113//130 110//130
f 115//131 119//131 116//131
f 117//132 118//132 114//132
f 119//133 114//133 118//133
f 114//134 119//134 115//134
f 117//135 120//135 118//135
f 121//136 116//136 119//136
f 123//137 117//137 122//137
f 120//138 121//138 118//138
f 119//139 118//139 121//139
f 123//140 120//140 117//140
f 121//141 120//141 123//141
f 123//142 122//142 124//142
f 124//143 121//143 123//143
f 127//144 125//144 126//144
f 128//145 125//145 127//145
f 131//146 129//146 126//146
f 127//147 126//147 130//147
f 130//148 126//148 129//148
f 132//149 130//149 129//149
f 131//150 133//150 129//150
f 127//151 132//151 128//151
f 134//152 128//152 132//152
f 130//153 132//153 127//153
f 133//154 132//154 129//154
f 137//155 133//155 131//155
f 137//156 131//156 135//156
f 137//157 135//157 136//157
f 133//158 134//158 132//158
f 134//159 133//159 137//159
f 136//160 134//160 137//160
f 141//161 138//161 139//161
f 140//162 138//162 141//162
f 144//163 139//163 142//163
f 141//164 143//164 140//164
f 144//165 141//165 139//165
f 147//166 143//166 141//166
f 142//167 148//167 144//167
f 147//168 141//168 144//168
f 146//169 145//169 142//169
f 142//170 145//170 148//170
f 147//171 150//171 143//171
f 151//172 146//172 149//172
f 152//173 144//173 148//173
f 145//174 152//174 148//174
f 152//175 147//175 144//175
f 153//176 145//176 146//176
f 153//177 152//177 145//177
f 151//178 153//178 146//178
f 147//179 152//179 150//179
f 152//180 154//180 150//180
f 153//181 155//181 152//181
f 151//182 149//182 154//182
f 154//183 149//183 150//183
f 154//184 153//184 151//184
f 155//185 153//185 154//185
f 152//186 155//186 154//186
f 160//187 157//187 156//187
f 156//188 159//188 160//188
f 164//189 157//189 160//189
f 157//190 161//190 158//190
f 156//191 162//191 159//191
f 163//192 162//192 156//192
f 164//193 161//193 157//193
f 160//194 159//194 164//194
f 162//195 163//195 166//195
f 161//196 165//196 158//196
f 167//197 159//197 162//197
f 164//198 159//198 167//198
f 167//199 169//199 164//199
f 169//200 161//200 164//200
f 168//201 166//201 163//201
f 166//202 167//202 162//202
f 169//203 165//203 161//203
f 171//204 169//204 167//204
f 169//205 170//205 165//205
f 171//206 166//206 168//206
f 166//207 171//207 167//207
f 171//208 170//208 169//208
f 170//209 171//209 168//209
